<mxfile host="app.diagrams.net" modified="2024-01-08T11:24:46.666Z" agent="Mozilla/5.0 (Windows NT 10.0; Win64; x64) AppleWebKit/537.36 (KHTML, like Gecko) Chrome/120.0.0.0 Safari/537.36" etag="12gf0-DBGaoryAsvDKqP" version="22.1.17" type="github">
  <diagram name="Page-1" id="3SfJPFi1K83CqYwrjBur">
    <mxGraphModel dx="1434" dy="790" grid="1" gridSize="10" guides="1" tooltips="1" connect="1" arrows="1" fold="1" page="1" pageScale="1" pageWidth="850" pageHeight="1100" math="0" shadow="0">
      <root>
        <mxCell id="0" />
        <mxCell id="1" parent="0" />
        <mxCell id="J2Lwr-g4fY2YTFmzKYky-3" value="" style="edgeStyle=orthogonalEdgeStyle;rounded=0;orthogonalLoop=1;jettySize=auto;html=1;fillColor=#dae8fc;strokeColor=#6c8ebf;" edge="1" parent="1" source="J2Lwr-g4fY2YTFmzKYky-1" target="J2Lwr-g4fY2YTFmzKYky-2">
          <mxGeometry relative="1" as="geometry" />
        </mxCell>
        <mxCell id="J2Lwr-g4fY2YTFmzKYky-1" value="Handle Key Press event" style="rounded=1;whiteSpace=wrap;html=1;fillColor=#dae8fc;strokeColor=#6c8ebf;" vertex="1" parent="1">
          <mxGeometry x="350" y="150" width="120" height="60" as="geometry" />
        </mxCell>
        <mxCell id="J2Lwr-g4fY2YTFmzKYky-5" value="true" style="edgeStyle=orthogonalEdgeStyle;rounded=0;orthogonalLoop=1;jettySize=auto;html=1;fillColor=#dae8fc;strokeColor=#6c8ebf;" edge="1" parent="1" source="J2Lwr-g4fY2YTFmzKYky-2" target="J2Lwr-g4fY2YTFmzKYky-4">
          <mxGeometry relative="1" as="geometry" />
        </mxCell>
        <mxCell id="J2Lwr-g4fY2YTFmzKYky-8" value="false" style="edgeStyle=orthogonalEdgeStyle;rounded=0;orthogonalLoop=1;jettySize=auto;html=1;fillColor=#dae8fc;strokeColor=#6c8ebf;" edge="1" parent="1" source="J2Lwr-g4fY2YTFmzKYky-2" target="J2Lwr-g4fY2YTFmzKYky-7">
          <mxGeometry relative="1" as="geometry" />
        </mxCell>
        <mxCell id="J2Lwr-g4fY2YTFmzKYky-2" value="Is 992PAGT?" style="rhombus;whiteSpace=wrap;html=1;rounded=1;fillColor=#dae8fc;strokeColor=#6c8ebf;" vertex="1" parent="1">
          <mxGeometry x="330" y="270" width="160" height="90" as="geometry" />
        </mxCell>
        <mxCell id="J2Lwr-g4fY2YTFmzKYky-4" value="Show submenu" style="whiteSpace=wrap;html=1;rounded=1;fillColor=#dae8fc;strokeColor=#6c8ebf;" vertex="1" parent="1">
          <mxGeometry x="170" y="410" width="120" height="60" as="geometry" />
        </mxCell>
        <mxCell id="J2Lwr-g4fY2YTFmzKYky-7" value="Do nothing" style="whiteSpace=wrap;html=1;rounded=1;fillColor=#dae8fc;strokeColor=#6c8ebf;" vertex="1" parent="1">
          <mxGeometry x="550" y="400" width="120" height="60" as="geometry" />
        </mxCell>
        <mxCell id="J2Lwr-g4fY2YTFmzKYky-9" value="" style="edgeStyle=orthogonalEdgeStyle;rounded=0;orthogonalLoop=1;jettySize=auto;html=1;fillColor=#dae8fc;strokeColor=#6c8ebf;" edge="1" parent="1" source="J2Lwr-g4fY2YTFmzKYky-10" target="J2Lwr-g4fY2YTFmzKYky-13">
          <mxGeometry relative="1" as="geometry" />
        </mxCell>
        <mxCell id="J2Lwr-g4fY2YTFmzKYky-10" value="Handle Key Press event" style="rounded=1;whiteSpace=wrap;html=1;fillColor=#dae8fc;strokeColor=#6c8ebf;" vertex="1" parent="1">
          <mxGeometry x="355" y="520" width="120" height="60" as="geometry" />
        </mxCell>
        <mxCell id="J2Lwr-g4fY2YTFmzKYky-11" value="true" style="edgeStyle=orthogonalEdgeStyle;rounded=0;orthogonalLoop=1;jettySize=auto;html=1;fillColor=#dae8fc;strokeColor=#6c8ebf;" edge="1" parent="1" source="J2Lwr-g4fY2YTFmzKYky-13" target="J2Lwr-g4fY2YTFmzKYky-14">
          <mxGeometry relative="1" as="geometry" />
        </mxCell>
        <mxCell id="J2Lwr-g4fY2YTFmzKYky-12" value="false" style="edgeStyle=orthogonalEdgeStyle;rounded=0;orthogonalLoop=1;jettySize=auto;html=1;fillColor=#dae8fc;strokeColor=#6c8ebf;" edge="1" parent="1" source="J2Lwr-g4fY2YTFmzKYky-13" target="J2Lwr-g4fY2YTFmzKYky-15">
          <mxGeometry relative="1" as="geometry" />
        </mxCell>
        <mxCell id="J2Lwr-g4fY2YTFmzKYky-13" value="Is 992PAGTx?" style="rhombus;whiteSpace=wrap;html=1;rounded=1;fillColor=#dae8fc;strokeColor=#6c8ebf;" vertex="1" parent="1">
          <mxGeometry x="335" y="640" width="160" height="90" as="geometry" />
        </mxCell>
        <mxCell id="J2Lwr-g4fY2YTFmzKYky-14" value="Show submenu" style="whiteSpace=wrap;html=1;rounded=1;fillColor=#dae8fc;strokeColor=#6c8ebf;" vertex="1" parent="1">
          <mxGeometry x="175" y="780" width="120" height="60" as="geometry" />
        </mxCell>
        <mxCell id="J2Lwr-g4fY2YTFmzKYky-15" value="Do nothing" style="whiteSpace=wrap;html=1;rounded=1;fillColor=#dae8fc;strokeColor=#6c8ebf;" vertex="1" parent="1">
          <mxGeometry x="555" y="770" width="120" height="60" as="geometry" />
        </mxCell>
      </root>
    </mxGraphModel>
  </diagram>
</mxfile>
